<svg id="Layer_1" data-name="Layer 1" xmlns="http://www.w3.org/2000/svg" viewBox="0 0 1920 1080"><defs><style>.cls-1{fill:#00c8f0;stroke:#00c8f0;stroke-miterlimit:10;stroke-width:0.75px;}.cls-2{fill:#4d4d4d;stroke:#4d4d4d;stroke-width:3px;}.cls-2,.cls-3{stroke-linecap:round;stroke-linejoin:round;}.cls-3{fill:none;stroke:#29abe2;stroke-width:4px;}</style></defs><title>mymech 2</title><path class="cls-1" d="M965.65,541.61v85H937.3v-85a28.35,28.35,0,1,0-56.69,0v85H852.26v-85a28.34,28.34,0,0,0-56.67-.84,64,64,0,0,0-22.34-24.55h0a56.68,56.68,0,0,1,93.2-12.1,56.69,56.69,0,0,1,99.22,37.5Z"/><path class="cls-1" d="M512.23,541.61v85h28.35v-85a28.35,28.35,0,1,1,56.69,0v85h28.35v-85a28.34,28.34,0,0,1,56.67-.84,64,64,0,0,1,22.34-24.55h0a56.68,56.68,0,0,0-93.2-12.1,56.69,56.69,0,0,0-99.22,37.5Z"/><path class="cls-2" d="M795.57,570a56.67,56.67,0,0,1-42.52,54.91v72.65a14.18,14.18,0,0,1-28.35,0V624.86a56.71,56.71,0,0,1-17.36-102,56.44,56.44,0,0,1,3.19,18.78v42.51l28.34,14.18,28.35-14.18V541.61a56.44,56.44,0,0,1,3.19-18.78l0,0A56.64,56.64,0,0,1,795.57,570Z"/><path class="cls-1" d="M1127.93,555.78a71.16,71.16,0,0,1-1.42,14.17,69.49,69.49,0,0,1-1.83,7.09h-69.51l-4.1-7.09-8.17-14.17,8.17-14.17,4.1-7.09h38.73a42.53,42.53,0,0,0-73.66,0,41.48,41.48,0,0,0-3.27,7.09H987.62a69.49,69.49,0,0,1,1.83-7.09,70.88,70.88,0,0,1,135.23,0,69.49,69.49,0,0,1,1.83,7.09A71.16,71.16,0,0,1,1127.93,555.78Z"/><path class="cls-1" d="M1118.44,591.21a70.88,70.88,0,0,1-129-14.17,69.49,69.49,0,0,1-1.83-7.09H1017a41.48,41.48,0,0,0,3.27,7.09,42.73,42.73,0,0,0,13.33,14.17,42.51,42.51,0,0,0,47,0Z"/><path class="cls-1" d="M1247,585.84l20,20a70.87,70.87,0,1,1,0-100.22l-20,20.05h0a42.49,42.49,0,0,0-60.12,0h0A42.51,42.51,0,1,0,1247,585.84Z"/><path class="cls-1" d="M1440.45,555.78v70.86h-28.34V555.78a42.52,42.52,0,0,0-85,0v70.86h-28.35V414.05a14.18,14.18,0,1,1,28.35,0v85a70.87,70.87,0,0,1,113.38,56.7Z"/><line class="cls-3" x1="986.84" y1="549.25" x2="1014.85" y2="549.25"/><line class="cls-3" x1="986.84" y1="560.59" x2="1014.85" y2="560.59"/></svg>